<svg width="32" height="32" viewBox="0 0 32 32" fill="none" xmlns="http://www.w3.org/2000/svg">
<g id="Element/Icon/Mail">
<path id="Mail" fill-rule="evenodd" clip-rule="evenodd" d="M4.69849 24.7027V8.17666L16.0048 17.3026L27.3017 8.17666V24.7027H4.69849ZM25.5239 7.31994L16.0636 14.7697L6.47627 7.31994H25.5239ZM26.9092 5.33333H5.09099C3.75402 5.33333 2.66675 6.39645 2.66675 7.7037V24.2963C2.66675 25.6036 3.75402 26.6667 5.09099 26.6667H26.9092C28.2461 26.6667 29.3334 25.6036 29.3334 24.2963V7.7037C29.3334 6.39645 28.2461 5.33333 26.9092 5.33333Z" fill="#BFC5D2"/>
<mask id="mask0_217_773" style="mask-type:luminance" maskUnits="userSpaceOnUse" x="2" y="5" width="28" height="22">
<path id="Mail_2" fill-rule="evenodd" clip-rule="evenodd" d="M4.69849 24.7027V8.17666L16.0048 17.3026L27.3017 8.17666V24.7027H4.69849ZM25.5239 7.31994L16.0636 14.7697L6.47627 7.31994H25.5239ZM26.9092 5.33333H5.09099C3.75402 5.33333 2.66675 6.39645 2.66675 7.7037V24.2963C2.66675 25.6036 3.75402 26.6667 5.09099 26.6667H26.9092C28.2461 26.6667 29.3334 25.6036 29.3334 24.2963V7.7037C29.3334 6.39645 28.2461 5.33333 26.9092 5.33333Z" fill="white"/>
</mask>
<g mask="url(#mask0_217_773)">
</g>
</g>
</svg>
